<svg xmlns="http://www.w3.org/2000/svg" viewBox="0 0 48 48" fill="none" aria-hidden="true">
  <path d="M24 42V22" stroke="currentColor" stroke-width="1.2" stroke-linecap="round"/>
  <path d="M20 30c-4-1-7-4-8-8 3 1 6 3 8 6M28 30c4-1 7-4 8-8-3 1-6 3-8 6" stroke="currentColor" stroke-width="1.2" stroke-linecap="round"/>
  <path d="M24 22c-3-4-3-9 0-13 3 4 3 9 0 13z" stroke="currentColor" stroke-width="1.2"/>
  <path d="M18 16c-2 2-2 5 0 7M30 16c2 2 2 5 0 7" stroke="currentColor" stroke-width="1.2" stroke-linecap="round"/>
  <path d="M24 9c0-3 2-5 4-6-1 3-1 5 1 7" stroke="currentColor" stroke-width="1.2" stroke-linecap="round"/>
</svg>
