

<svg version="1.1" id="Layer_1" xmlns="http://www.w3.org/2000/svg" xmlns:xlink="http://www.w3.org/1999/xlink" x="0px" y="0px"
	 width="60px" height="60px" viewBox="0 0 60 60" enable-background="new 0 0 60 60" xml:space="preserve">
<g>
	<path fill="#010101" d="M46.885,40.98c-0.322-0.345-1.006-0.813-1.333-1.459c-1.558-3.068-3.015-6.188-4.511-9.285
		c-0.692-1.438-3.035-1.586-3.94-0.256c-1.918,2.814-3.847,5.625-5.743,8.457c-0.51,0.76-1.086,1.326-2.072,1.19
		c-0.995-0.138-1.371-0.872-1.651-1.729c-1.07-3.27-2.16-6.529-3.247-9.792c-0.461-1.384-2.783-1.876-3.756-0.784
		c-2.294,2.573-4.579,5.153-6.859,7.741c-0.592,0.67-1.237,1.226-2.203,0.932c-0.929-0.282-1.255-1.021-1.424-1.93
		c-0.643-3.457-1.349-6.898-1.998-10.354c-0.13-0.69-0.461-1.04-1.11-1.328c-1.178-0.523-2.325-1.146-3.401-1.855
		c-0.291-0.191-0.279-0.841-0.408-1.28c0.45-0.098,1.033-0.428,1.328-0.257c4.815,2.775,10.098,4.211,15.453,5.382
		c9.834,2.151,19.775,3.502,29.863,3.201c2.869-0.085,5.724-0.661,8.576-1.061c0.691-0.098,1.327-0.155,1.518,0.642
		c0.178,0.743-0.379,1.055-1.01,1.196c-1.229,0.274-2.447,0.61-3.689,0.77c-0.654,0.083-0.965,0.343-1.237,0.888
		c-1.604,3.209-3.247,6.399-4.854,9.608C48.778,40.408,48.252,40.945,46.885,40.98z M29.578,37.67
		c2.051-3.02,3.986-5.868,5.969-8.789c-3.203-0.441-6.199-0.855-9.332-1.288C27.346,30.977,28.429,34.225,29.578,37.67z
		 M47.365,38.986c1.666-3.289,3.223-6.361,4.805-9.479c-3.176,0-6.194,0-9.377,0C44.308,32.646,45.787,35.714,47.365,38.986z
		 M12.088,34.093c2.425-2.733,4.683-5.278,6.974-7.86c-3.053-0.865-5.964-1.691-9.004-2.553
		C10.728,27.116,11.376,30.441,12.088,34.093z"/>
</g>
</svg>

